<svg xmlns="http://www.w3.org/2000/svg">
    <defs>
        <g id="moon" viewBox="0 0 24 24">
            <path stroke-linecap="round" stroke-linejoin="round" fill="none" stroke="currentColor" d="M21.752 15.002A9.718 9.718 0 0118 15.75c-5.385 0-9.75-4.365-9.75-9.75 0-1.33.266-2.597.748-3.752A9.753 9.753 0 003 11.25C3 16.635 7.365 21 12.75 21a9.753 9.753 0 009.002-5.998z" />
        </g>
        
        <g id="sun" viewBox="24 0 24 24">
            <path stroke-linecap="round" stroke-linejoin="round" fill="none" stroke="currentColor" d="M12 3v2.25m6.364.386l-1.591 1.591M21 12h-2.25m-.386 6.364l-1.591-1.591M12 18.75V21m-4.773-4.227l-1.591 1.591M5.25 12H3m4.227-4.773L5.636 5.636M15.75 12a3.75 3.75 0 11-7.5 0 3.75 3.75 0 017.5 0z" />
        </g>
        
        <g id="chevron-left" viewBox="48 0 24 24">
            <path stroke-linecap="round" stroke-linejoin="round" fill="none" stroke="currentColor" d="M15.75 19.5L8.25 12l7.5-7.5" />
        </g>
        
        <g id="chevron-right" viewBox="72 0 24 24">
            <path stroke-linecap="round" stroke-linejoin="round" fill="none" stroke="currentColor" d="M8.25 4.5l7.5 7.5-7.5 7.5" />
        </g>
        
        <g id="arrow-down" viewBox="96 0 24 24">
            <path stroke-linecap="round" stroke-linejoin="round" fill="none" stroke="currentColor" d="M19.5 13.5L12 21m0 0l-7.5-7.5M12 21V3" />
        </g>
        
        <g id="collapse" viewBox="120 0 24 24">
            <path stroke-linecap="round" stroke-linejoin="round" fill="none" stroke="currentColor" d="M9 9V4.5M9 9H4.5M9 9L3.75 3.75M9 15v4.5M9 15H4.5M9 15l-5.25 5.25M15 9h4.5M15 9V4.5M15 9l5.25-5.25M15 15h4.5M15 15v4.5m0-4.5l5.25 5.25" />
        </g>
        
        <g id="expand" viewBox="144 0 24 24">
            <path stroke-linecap="round" stroke-linejoin="round" fill="none" stroke="currentColor" d="M3.75 3.75v4.5m0-4.5h4.5m-4.5 0L9 9M3.75 20.25v-4.5m0 4.5h4.5m-4.5 0L9 15M20.25 3.75h-4.5m4.5 0v4.5m0-4.5L15 9m5.25 11.25h-4.5m4.5 0v-4.5m0 4.5L15 15" />
        </g>
        
        <g id="full-speaker" viewBox="168 0 24 24">
            <path stroke-linecap="round" stroke-linejoin="round" fill="none" stroke="currentColor" d="M19.114 5.636a9 9 0 010 12.728M16.463 8.288a5.25 5.25 0 010 7.424M6.75 8.25l4.72-4.72a.75.75 0 011.28.53v15.88a.75.75 0 01-1.28.53l-4.72-4.72H4.51c-.88 0-1.704-.507-1.938-1.354A9.01 9.01 0 012.25 12c0-.83.112-1.633.322-2.396C2.806 8.756 3.63 8.25 4.51 8.25H6.75z" />
        </g>
        
        <g id="muted-speaker" viewBox="192 0 24 24">
            <path stroke-linecap="round" stroke-linejoin="round" fill="none" stroke="currentColor" d="M17.25 9.75L19.5 12m0 0l2.25 2.25M19.5 12l2.25-2.25M19.5 12l-2.25 2.25m-10.5-6l4.72-4.72a.75.75 0 011.28.531V19.94a.75.75 0 01-1.28.53l-4.72-4.72H4.51c-.88 0-1.704-.506-1.938-1.354A9.01 9.01 0 012.25 12c0-.83.112-1.633.322-2.395C2.806 8.757 3.63 8.25 4.51 8.25H6.75z" />
        </g>
        
        <g id="reset" viewBox="216 0 24 24">
            <path stroke-linecap="round" stroke-linejoin="round" fill="none" stroke="currentColor" d="M16.023 9.348h4.992v-.001M2.985 19.644v-4.992m0 0h4.992m-4.993 0l3.181 3.183a8.25 8.25 0 0013.803-3.7M4.031 9.865a8.25 8.25 0 0113.803-3.7l3.181 3.182m0-4.991v4.99" />
        </g>
        
        <g id="computer" viewBox="240 0 24 24">
            <path stroke-linecap="round" stroke-linejoin="round" fill="none" stroke="currentColor" d="M9 17.25v1.007a3 3 0 01-.879 2.122L7.5 21h9l-.621-.621A3 3 0 0115 18.257V17.25m6-12V15a2.25 2.25 0 01-2.25 2.25H5.25A2.25 2.25 0 013 15V5.25m18 0A2.25 2.25 0 0018.75 3H5.25A2.25 2.25 0 003 5.25m18 0V12a2.25 2.25 0 01-2.25 2.25H5.25A2.25 2.25 0 013 12V5.25" />
        </g>
        
        <g id="filter" viewBox="264 0 24 24">
            <path stroke-linecap="round" stroke-linejoin="round" fill="none" stroke="currentColor" d="M6 13.5V3.75m0 9.75a1.5 1.5 0 010 3m0-3a1.5 1.5 0 000 3m0 3.75V16.5m12-3V3.75m0 9.75a1.5 1.5 0 010 3m0-3a1.5 1.5 0 000 3m0 3.75V16.5m-6-9V3.75m0 3.75a1.5 1.5 0 010 3m0-3a1.5 1.5 0 000 3m0 9.75V10.5" />
        </g>
        
        <g id="camera" viewBox="288 0 24 24">
            <path stroke-linecap="round" stroke-linejoin="round" fill="none" stroke="currentColor" d="M6.827 6.175A2.31 2.31 0 015.186 7.23c-.38.054-.757.112-1.134.175C2.999 7.58 2.25 8.507 2.25 9.574V18a2.25 2.25 0 002.25 2.25h15A2.25 2.25 0 0021.75 18V9.574c0-1.067-.75-1.994-1.802-2.169a47.865 47.865 0 00-1.134-.175 2.31 2.31 0 01-1.64-1.055l-.822-1.316a2.192 2.192 0 00-1.736-1.039 48.774 48.774 0 00-5.232 0 2.192 2.192 0 00-1.736 1.039l-.821 1.316z" />
            <path stroke-linecap="round" stroke-linejoin="round" fill="none" stroke="currentColor" d="M16.5 12.75a4.5 4.5 0 11-9 0 4.5 4.5 0 019 0zM18.75 10.5h.008v.008h-.008V10.5z" />
        </g>
        
        <g id="pencil" viewBox="0 24 24 24">
            <path stroke-linecap="round" stroke-linejoin="round" fill="none" stroke="currentColor" d="M16.862 4.487l1.687-1.688a1.875 1.875 0 112.652 2.652L6.832 19.82a4.5 4.5 0 01-1.897 1.13l-2.685.8.8-2.685a4.5 4.5 0 011.13-1.897L16.863 4.487zm0 0L19.5 7.125" />
        </g>
        
        <g id="settings" viewBox="24 24 24 24">
            <path stroke-linecap="round" stroke-linejoin="round" fill="none" stroke="currentColor" d="M9.594 3.94c.09-.542.56-.94 1.11-.94h2.593c.55 0 1.02.398 1.11.94l.213 1.281c.063.374.313.686.645.87.074.04.147.083.22.127.324.196.72.257 1.075.124l1.217-.456a1.125 1.125 0 011.37.49l1.296 2.247a1.125 1.125 0 01-.26 1.431l-1.003.827c-.293.24-.438.613-.431.992a6.759 6.759 0 010 .255c-.007.378.138.75.43.99l1.005.828c.424.35.534.954.26 1.43l-1.298 2.247a1.125 1.125 0 01-1.369.491l-1.217-.456c-.355-.133-.75-.072-1.076.124a6.57 6.57 0 01-.22.128c-.331.183-.581.495-.644.869l-.213 1.28c-.09.543-.56.941-1.11.941h-2.594c-.55 0-1.02-.398-1.11-.94l-.213-1.281c-.062-.374-.312-.686-.644-.87a6.52 6.52 0 01-.22-.127c-.325-.196-.72-.257-1.076-.124l-1.217.456a1.125 1.125 0 01-1.369-.49l-1.297-2.247a1.125 1.125 0 01.26-1.431l1.004-.827c.292-.24.437-.613.43-.992a6.932 6.932 0 010-.255c.007-.378-.138-.75-.43-.99l-1.004-.828a1.125 1.125 0 01-.26-1.43l1.297-2.247a1.125 1.125 0 011.37-.491l1.216.456c.356.133.751.072 1.076-.124.072-.044.146-.087.22-.128.332-.183.582-.495.644-.869l.214-1.281z" />
            <path stroke-linecap="round" stroke-linejoin="round" fill="none" stroke="currentColor" d="M15 12a3 3 0 11-6 0 3 3 0 016 0z" />
        </g>
        
        <g id="x-icon" viewBox="48 24 24 24">
            <path stroke-linecap="round" stroke-linejoin="round" fill="none" stroke="currentColor" d="M6 18L18 6M6 6l12 12" />
        </g>
        
        <g id="x-icon-small" viewBox="68 24 20 20">
            <path fill="currentColor" stroke="evenodd" d="M6.28 5.22a.75.75 0 00-1.06 1.06L8.94 10l-3.72 3.72a.75.75 0 101.06 1.06L10 11.06l3.72 3.72a.75.75 0 101.06-1.06L11.06 10l3.72-3.72a.75.75 0 00-1.06-1.06L10 8.94 6.28 5.22z" />
        </g>
        
        <g id="pencil-small" viewBox="88 24 20 20">
            <path fill="currentColor" stroke="evenodd" d="M2.695 14.763l-1.262 3.154a.5.5 0 00.65.65l3.155-1.262a4 4 0 001.343-.885L17.5 5.5a2.121 2.121 0 00-3-3L3.58 13.42a4 4 0 00-.885 1.343z" />
        </g>
        
        <g id="camera-small" viewBox="108 24 20 20">
            <path fill="currentColor" stroke="evenodd" d="M1 8a2 2 0 012-2h.93a2 2 0 001.664-.89l.812-1.22A2 2 0 018.07 3h3.86a2 2 0 011.664.89l.812 1.22A2 2 0 0016.07 6H17a2 2 0 012 2v7a2 2 0 01-2 2H3a2 2 0 01-2-2V8zm13.5 3a4.5 4.5 0 11-9 0 4.5 4.5 0 019 0zM10 14a3 3 0 100-6 3 3 0 000 6z" clip-rule="currentColor" />
        </g>
        
        <g id="computer-small" viewBox="128 24 20 20">
            <path fill="currentColor" stroke="evenodd" d="M2 4.25A2.25 2.25 0 014.25 2h11.5A2.25 2.25 0 0118 4.25v8.5A2.25 2.25 0 0115.75 15h-3.105a3.501 3.501 0 001.1 1.677A.75.75 0 0113.26 18H6.74a.75.75 0 01-.484-1.323A3.501 3.501 0 007.355 15H4.25A2.25 2.25 0 012 12.75v-8.5zm1.5 0a.75.75 0 01.75-.75h11.5a.75.75 0 01.75.75v7.5a.75.75 0 01-.75.75H4.25a.75.75 0 01-.75-.75v-7.5z" clip-rule="currentColor" />
        </g>
        
        <g id="moon-small" viewBox="148 24 20 20">
            <path fill="currentColor" stroke="evenodd" d="M7.455 2.004a.75.75 0 01.26.77 7 7 0 009.958 7.967.75.75 0 011.067.853A8.5 8.5 0 116.647 1.921a.75.75 0 01.808.083z" clip-rule="currentColor" />
        </g>
        
        <g id="sun-small" viewBox="168 24 20 20">
            <path fill="currentColor" stroke="evenodd" d="M10 2a.75.75 0 01.75.75v1.5a.75.75 0 01-1.5 0v-1.5A.75.75 0 0110 2zM10 15a.75.75 0 01.75.75v1.5a.75.75 0 01-1.5 0v-1.5A.75.75 0 0110 15zM10 7a3 3 0 100 6 3 3 0 000-6zM15.657 5.404a.75.75 0 10-1.06-1.06l-1.061 1.06a.75.75 0 001.06 1.06l1.06-1.06zM6.464 14.596a.75.75 0 10-1.06-1.06l-1.06 1.06a.75.75 0 001.06 1.06l1.06-1.06zM18 10a.75.75 0 01-.75.75h-1.5a.75.75 0 010-1.5h1.5A.75.75 0 0118 10zM5 10a.75.75 0 01-.75.75h-1.5a.75.75 0 010-1.5h1.5A.75.75 0 015 10zM14.596 15.657a.75.75 0 001.06-1.06l-1.06-1.061a.75.75 0 10-1.06 1.06l1.06 1.06zM5.404 6.464a.75.75 0 001.06-1.06l-1.06-1.06a.75.75 0 10-1.061 1.06l1.06 1.06z" />
        </g>
        
        <g id="sun-solid" viewBox="192 24 24 24">
            <path fill="currentColor" stroke="evenodd" d="M12 2.25a.75.75 0 01.75.75v2.25a.75.75 0 01-1.5 0V3a.75.75 0 01.75-.75zM7.5 12a4.5 4.5 0 119 0 4.5 4.5 0 01-9 0zM18.894 6.166a.75.75 0 00-1.06-1.06l-1.591 1.59a.75.75 0 101.06 1.061l1.591-1.59zM21.75 12a.75.75 0 01-.75.75h-2.25a.75.75 0 010-1.5H21a.75.75 0 01.75.75zM17.834 18.894a.75.75 0 001.06-1.06l-1.59-1.591a.75.75 0 10-1.061 1.06l1.59 1.591zM12 18a.75.75 0 01.75.75V21a.75.75 0 01-1.5 0v-2.25A.75.75 0 0112 18zM7.758 17.303a.75.75 0 00-1.061-1.06l-1.591 1.59a.75.75 0 001.06 1.061l1.591-1.59zM6 12a.75.75 0 01-.75.75H3a.75.75 0 010-1.5h2.25A.75.75 0 016 12zM6.697 7.757a.75.75 0 001.06-1.06l-1.59-1.591a.75.75 0 00-1.061 1.06l1.59 1.591z" />
        </g>
        
        <g id="settings-small" viewBox="212 24 20 20">
            <path fill="currentColor" stroke="evenodd" d="M7.84 1.804A1 1 0 018.82 1h2.36a1 1 0 01.98.804l.331 1.652a6.993 6.993 0 011.929 1.115l1.598-.54a1 1 0 011.186.447l1.18 2.044a1 1 0 01-.205 1.251l-1.267 1.113a7.047 7.047 0 010 2.228l1.267 1.113a1 1 0 01.206 1.25l-1.18 2.045a1 1 0 01-1.187.447l-1.598-.54a6.993 6.993 0 01-1.929 1.115l-.33 1.652a1 1 0 01-.98.804H8.82a1 1 0 01-.98-.804l-.331-1.652a6.993 6.993 0 01-1.929-1.115l-1.598.54a1 1 0 01-1.186-.447l-1.18-2.044a1 1 0 01.205-1.251l1.267-1.114a7.05 7.05 0 010-2.227L1.821 7.773a1 1 0 01-.206-1.25l1.18-2.045a1 1 0 011.187-.447l1.598.54A6.993 6.993 0 017.51 3.456l.33-1.652zM10 13a3 3 0 100-6 3 3 0 000 6z" clip-rule="currentColor" />
        </g>
        
        <g id="settings-solid" viewBox="236 24 24 24">
            <path fill="currentColor" stroke="evenodd" d="M11.078 2.25c-.917 0-1.699.663-1.85 1.567L9.05 4.889c-.02.12-.115.26-.297.348a7.493 7.493 0 00-.986.57c-.166.115-.334.126-.45.083L6.3 5.508a1.875 1.875 0 00-2.282.819l-.922 1.597a1.875 1.875 0 00.432 2.385l.84.692c.095.078.17.229.154.43a7.598 7.598 0 000 1.139c.015.2-.059.352-.153.43l-.841.692a1.875 1.875 0 00-.432 2.385l.922 1.597a1.875 1.875 0 002.282.818l1.019-.382c.115-.043.283-.031.45.082.312.214.641.405.985.57.182.088.277.228.297.35l.178 1.071c.151.904.933 1.567 1.85 1.567h1.844c.916 0 1.699-.663 1.85-1.567l.178-1.072c.02-.12.114-.26.297-.349.344-.165.673-.356.985-.57.167-.114.335-.125.45-.082l1.02.382a1.875 1.875 0 002.28-.819l.923-1.597a1.875 1.875 0 00-.432-2.385l-.84-.692c-.095-.078-.17-.229-.154-.43a7.614 7.614 0 000-1.139c-.016-.2.059-.352.153-.43l.84-.692c.708-.582.891-1.59.433-2.385l-.922-1.597a1.875 1.875 0 00-2.282-.818l-1.02.382c-.114.043-.282.031-.449-.083a7.49 7.49 0 00-.985-.57c-.183-.087-.277-.227-.297-.348l-.179-1.072a1.875 1.875 0 00-1.85-1.567h-1.843zM12 15.75a3.75 3.75 0 100-7.5 3.75 3.75 0 000 7.5z" clip-rule="currentColor" />
        </g>
        
        <g id="filter-small" viewBox="256 24 20 20">
            <path fill="currentColor" stroke="evenodd" d="M17 2.75a.75.75 0 00-1.5 0v5.5a.75.75 0 001.5 0v-5.5zM17 15.75a.75.75 0 00-1.5 0v1.5a.75.75 0 001.5 0v-1.5zM3.75 15a.75.75 0 01.75.75v1.5a.75.75 0 01-1.5 0v-1.5a.75.75 0 01.75-.75zM4.5 2.75a.75.75 0 00-1.5 0v5.5a.75.75 0 001.5 0v-5.5zM10 11a.75.75 0 01.75.75v5.5a.75.75 0 01-1.5 0v-5.5A.75.75 0 0110 11zM10.75 2.75a.75.75 0 00-1.5 0v1.5a.75.75 0 001.5 0v-1.5zM10 6a2 2 0 100 4 2 2 0 000-4zM3.75 10a2 2 0 100 4 2 2 0 000-4zM16.25 10a2 2 0 100 4 2 2 0 000-4z" />
        </g>
        
        <g id="moon-solid" viewBox="280 24 24 24">
            <path fill="currentColor" stroke="evenodd" d="M9.528 1.718a.75.75 0 01.162.819A8.97 8.97 0 009 6a9 9 0 009 9 8.97 8.97 0 003.463-.69.75.75 0 01.981.98 10.503 10.503 0 01-9.694 6.46c-5.799 0-10.5-4.701-10.5-10.5 0-4.368 2.667-8.112 6.46-9.694a.75.75 0 01.818.162z" clip-rule="evenodd" />
        </g>
        
        <g id="speaker-small" viewBox="300 24 20 20">
            <path fill="currentColor" stroke="evenodd" d="M10 3.75a.75.75 0 00-1.264-.546L4.703 7H3.167a.75.75 0 00-.7.48A6.985 6.985 0 002 10c0 .887.165 1.737.468 2.52.111.29.39.48.7.48h1.535l4.033 3.796A.75.75 0 0010 16.25V3.75zM15.95 5.05a.75.75 0 00-1.06 1.061 5.5 5.5 0 010 7.778.75.75 0 001.06 1.06 7 7 0 000-9.899z" />
            <path fill="currentColor" stroke="evenodd" d="M13.829 7.172a.75.75 0 00-1.061 1.06 2.5 2.5 0 010 3.536.75.75 0 001.06 1.06 4 4 0 000-5.656z" />
        </g>
        
        <g id="pause" viewBox="0 48 24 24">
            <path stroke-linecap="round" stroke-linejoin="round" fill="none" stroke="currentColor" d="M15.75 5.25v13.5m-7.5-13.5v13.5" />
        </g>
        
        <g id="pause-solid" viewBox="24 48 24 24">
            <path fill="currentColor" stroke="evenodd" d="M6.75 5.25a.75.75 0 01.75-.75H9a.75.75 0 01.75.75v13.5a.75.75 0 01-.75.75H7.5a.75.75 0 01-.75-.75V5.25zm7.5 0A.75.75 0 0115 4.5h1.5a.75.75 0 01.75.75v13.5a.75.75 0 01-.75.75H15a.75.75 0 01-.75-.75V5.25z" clip-rule="evenodd" />
        </g>
        
        <g id="pause-small" vieBox="44 48 20 20">
            <path fill="currentColor" stroke="evenodd" d="M5.75 3a.75.75 0 00-.75.75v12.5c0 .414.336.75.75.75h1.5a.75.75 0 00.75-.75V3.75A.75.75 0 007.25 3h-1.5zM12.75 3a.75.75 0 00-.75.75v12.5c0 .414.336.75.75.75h1.5a.75.75 0 00.75-.75V3.75a.75.75 0 00-.75-.75h-1.5z" />
        </g>
        
        <g id="play-small" viewBox="64 48 20 20">
            <path fill="currentColor" stroke="evenodd" d="M6.3 2.841A1.5 1.5 0 004 4.11V15.89a1.5 1.5 0 002.3 1.269l9.344-5.89a1.5 1.5 0 000-2.538L6.3 2.84z" />
        </g>
        
        <g id="play-solid" viewBox="88 48 24 24">
            <path fill="currentColor" stroke="evenodd" fill-rule="evenodd" d="M4.5 5.653c0-1.426 1.529-2.33 2.779-1.643l11.54 6.348c1.295.712 1.295 2.573 0 3.285L7.28 19.991c-1.25.687-2.779-.217-2.779-1.643V5.653z" clip-rule="evenodd" />
        </g>
        
        <g id="play" viewBox="112 48 24 24">
            <path stroke-linecap="round" stroke-linejoin="round" fill="none" stroke="currentColor" d="M5.25 5.653c0-.856.917-1.398 1.667-.986l11.54 6.348a1.125 1.125 0 010 1.971l-11.54 6.347a1.125 1.125 0 01-1.667-.985V5.653z" />
        </g>
        
        <g id="expand-small" viewBox="132 48 20 20">
            <path fill="currentColor" stroke="evenodd" d="M13.28 7.78l3.22-3.22v2.69a.75.75 0 001.5 0v-4.5a.75.75 0 00-.75-.75h-4.5a.75.75 0 000 1.5h2.69l-3.22 3.22a.75.75 0 001.06 1.06zM2 17.25v-4.5a.75.75 0 011.5 0v2.69l3.22-3.22a.75.75 0 011.06 1.06L4.56 16.5h2.69a.75.75 0 010 1.5h-4.5a.747.747 0 01-.75-.75zM12.22 13.28l3.22 3.22h-2.69a.75.75 0 000 1.5h4.5a.747.747 0 00.75-.75v-4.5a.75.75 0 00-1.5 0v2.69l-3.22-3.22a.75.75 0 10-1.06 1.06zM3.5 4.56l3.22 3.22a.75.75 0 001.06-1.06L4.56 3.5h2.69a.75.75 0 000-1.5h-4.5a.75.75 0 00-.75.75v4.5a.75.75 0 001.5 0V4.56z" />
        </g>
        
        <g id="muted-speaker-small" viewBox="192 48 20 20">
            <path fill="currentColor" stroke="evenodd" d="M9.547 3.062A.75.75 0 0110 3.75v12.5a.75.75 0 01-1.264.546L4.703 13H3.167a.75.75 0 01-.7-.48A6.985 6.985 0 012 10c0-.887.165-1.737.468-2.52a.75.75 0 01.7-.48h1.535l4.033-3.796a.75.75 0 01.811-.142zM13.28 7.22a.75.75 0 10-1.06 1.06L13.94 10l-1.72 1.72a.75.75 0 001.06 1.06L15 11.06l1.72 1.72a.75.75 0 101.06-1.06L16.06 10l1.72-1.72a.75.75 0 00-1.06-1.06L15 8.94l-1.72-1.72z" />
        </g>

        <g id="collapse-small">
            <path fill="currentColor" stroke="evenodd" d="M3.28 2.22a.75.75 0 00-1.06 1.06L5.44 6.5H2.75a.75.75 0 000 1.5h4.5A.75.75 0 008 7.25v-4.5a.75.75 0 00-1.5 0v2.69L3.28 2.22zM13.5 2.75a.75.75 0 00-1.5 0v4.5c0 .414.336.75.75.75h4.5a.75.75 0 000-1.5h-2.69l3.22-3.22a.75.75 0 00-1.06-1.06L13.5 5.44V2.75zM3.28 17.78l3.22-3.22v2.69a.75.75 0 001.5 0v-4.5a.75.75 0 00-.75-.75h-4.5a.75.75 0 000 1.5h2.69l-3.22 3.22a.75.75 0 101.06 1.06zM13.5 14.56l3.22 3.22a.75.75 0 101.06-1.06l-3.22-3.22h2.69a.75.75 0 000-1.5h-4.5a.75.75 0 00-.75.75v4.5a.75.75 0 001.5 0v-2.69z" />
        </g>
    </defs>
</svg>